<?xml version="1.0" encoding="utf-8"?>
<!-- Generator: Adobe Illustrator 25.0.1, SVG Export Plug-In . SVG Version: 6.00 Build 0)  -->
<svg version="1.1" id="Layer_1" xmlns="http://www.w3.org/2000/svg" xmlns:xlink="http://www.w3.org/1999/xlink" x="0px" y="0px"
	 viewBox="0 0 200 200" style="enable-background:new 0 0 200 200;" xml:space="preserve">
<style type="text/css">
	.st0{fill-rule:evenodd;clip-rule:evenodd;fill:#7F46F0;}
	.st1{fill-rule:evenodd;clip-rule:evenodd;fill:#D34FA0;}
	.st2{fill-rule:evenodd;clip-rule:evenodd;fill:#0AA5E8;}
	.st3{fill-rule:evenodd;clip-rule:evenodd;fill:#38E4DE;}
</style>
<g id="Layer_x0020_1_1_">
	<g id="_2302127387760_2_">
		<path class="st0" d="M117.4,122.3v26.5c0,12.7-5.2,24.1-13.5,32.5c-8.3,8.3-19.8,13.5-32.5,13.5l-26.5,0h-4.9v-4.9v-25.1l0-4.9H45
			h9.2h16.6c6.5,0,11.7-5.3,11.7-11.7v-14.4v-11.5v-4.9l4.9,0h25.1h4.9V122.3z"/>
		<path class="st1" d="M77.7,82.6H51.2c-12.7,0-24.1,5.2-32.5,13.5c-8.3,8.3-13.5,19.8-13.5,32.5l0,26.5v4.9h4.9h25.1l4.9,0V155
			v-9.2v-16.6c0-6.5,5.3-11.7,11.7-11.7h14.4h11.4h4.9l0-4.9V87.5v-4.9H77.7z"/>
		<path class="st2" d="M122.3,117.4h26.5c12.7,0,24.1-5.2,32.5-13.5c8.3-8.3,13.5-19.8,13.5-32.5l0-26.5v-4.9h-4.9h-25.1l-4.9,0V45
			v9.2v16.6c0,6.5-5.3,11.7-11.7,11.7h-14.4h-11.4h-4.9l0,4.9v25.1v4.9H122.3z"/>
		<path class="st3" d="M82.6,77.7V51.2c0-12.7,5.2-24.1,13.5-32.5c8.3-8.3,19.8-13.5,32.5-13.5l26.5,0h4.9v4.9v25.1l0,4.9H155h-9.2
			h-16.6c-6.5,0-11.7,5.3-11.7,11.7v14.4v11.4v4.9l-4.9,0H87.5h-4.9V77.7z"/>
	</g>
</g>
</svg>
